<svg viewBox="8 20 160 160" xmlns="http://www.w3.org/2000/svg" role="img" aria-label="Digital Nalanda">
  <defs>
    <linearGradient id="leafA" x1="0" y1="0" x2="1" y2="1">
      <stop offset="0" stop-color="#f6b73c"/>
      <stop offset="1" stop-color="#e8901f"/>
    </linearGradient>
    <linearGradient id="leafB" x1="0" y1="0" x2="1" y2="1">
      <stop offset="0" stop-color="#f2a52c"/>
      <stop offset="1" stop-color="#d97a16"/>
    </linearGradient>
  </defs>
  <rect x="8" y="20" width="160" height="160" rx="34" fill="#2f6d75"/>
  <circle cx="120" cy="74" r="40" fill="#c0402f"/>
  <g transform="translate(86 74)" stroke="#f3a01c" fill="none">
    <circle r="40" stroke-width="7"/>
    <circle r="9" fill="#f3a01c" stroke="none"/>
    <g stroke-width="4.5" stroke-linecap="round">
      <line x1="0" y1="-40" x2="0" y2="40"/>
      <line x1="-40" y1="0" x2="40" y2="0"/>
      <line x1="-28" y1="-28" x2="28" y2="28"/>
      <line x1="28" y1="-28" x2="-28" y2="28"/>
      <line x1="-15" y1="-37" x2="15" y2="37"/>
      <line x1="15" y1="-37" x2="-15" y2="37"/>
      <line x1="-37" y1="-15" x2="37" y2="15"/>
      <line x1="37" y1="-15" x2="-37" y2="15"/>
    </g>
  </g>
  <g>
    <path d="M70 168 C 36 150, 26 110, 60 96 C 78 122, 84 150, 70 168 Z" fill="url(#leafA)"/>
    <path d="M70 168 C 60 140, 54 118, 60 98" stroke="#a85e15" stroke-width="2.4" fill="none" stroke-linecap="round"/>
    <path d="M104 170 C 74 156, 60 120, 92 104 C 108 130, 116 156, 104 170 Z" fill="url(#leafB)"/>
    <path d="M104 170 C 96 144, 92 124, 94 106" stroke="#a85e15" stroke-width="2.4" fill="none" stroke-linecap="round"/>
  </g>
</svg>
